<svg xmlns="http://www.w3.org/2000/svg" viewBox="0 0 240 164"><rect width="240" height="164" fill="#fffdf5"/><g stroke="#384e59" font-size="23" stroke-width="3" stroke-linejoin="round" stroke-linecap="round" fill="none"><path d="M34 54H207Q191 143 121 143Q51 141 34 54Z" fill="#d5e0e4"/><ellipse cx="120" cy="54" rx="88" ry="23" fill="#e7eeee"/><circle cx="64" cy="78" r="3" fill="#fffdf5" stroke="none"/><circle cx="92" cy="78" r="3" fill="#fffdf5" stroke="none"/><circle cx="120" cy="78" r="3" fill="#fffdf5" stroke="none"/><circle cx="148" cy="78" r="3" fill="#fffdf5" stroke="none"/><circle cx="176" cy="78" r="3" fill="#fffdf5" stroke="none"/><circle cx="64" cy="96" r="3" fill="#fffdf5" stroke="none"/><circle cx="92" cy="96" r="3" fill="#fffdf5" stroke="none"/><circle cx="120" cy="96" r="3" fill="#fffdf5" stroke="none"/><circle cx="148" cy="96" r="3" fill="#fffdf5" stroke="none"/><circle cx="176" cy="96" r="3" fill="#fffdf5" stroke="none"/><circle cx="64" cy="114" r="3" fill="#fffdf5" stroke="none"/><circle cx="92" cy="114" r="3" fill="#fffdf5" stroke="none"/><circle cx="120" cy="114" r="3" fill="#fffdf5" stroke="none"/><circle cx="148" cy="114" r="3" fill="#fffdf5" stroke="none"/><circle cx="176" cy="114" r="3" fill="#fffdf5" stroke="none"/></g><style>text{font-family:sans-serif;fill:#263e49;stroke:none}</style></svg>
