<svg xmlns="http://www.w3.org/2000/svg" viewBox="0 0 240 184" role="img"><title>バタフライ：動きと用具の模式図。縮尺・実技フォームの見本ではない</title><rect width="240" height="184" rx="12" fill="#fffdf2"/><text x="120" y="22" text-anchor="middle" font-family="sans-serif" font-size="17" font-weight="bold" fill="#294651">上から・うつ伏せ</text><g transform="translate(65 54)"><circle cx="0" cy="0" r="7" fill="#294651"/><path d="M0 12V46" fill="none" stroke="#294651" stroke-width="7" stroke-linecap="round" stroke-linejoin="round"/><path d="M-5 16L-29 25L-37 10M5 16L29 25L37 10" fill="none" stroke="#2386a2" stroke-width="4" stroke-linecap="round" stroke-linejoin="round"/><path d="M-3 46L-4 65L-2 78M3 46L4 65L2 78" fill="none" stroke="#294651" stroke-width="4" stroke-linecap="round" stroke-linejoin="round"/></g><g transform="translate(174 54)"><circle cx="0" cy="0" r="7" fill="#294651"/><path d="M0 12V46" fill="none" stroke="#294651" stroke-width="7" stroke-linecap="round" stroke-linejoin="round"/><path d="M-5 16L-14-5L-6-25M5 16L14-5L6-25" fill="none" stroke="#2386a2" stroke-width="4" stroke-linecap="round" stroke-linejoin="round"/><path d="M-3 46L-4 65L-2 78M3 46L4 65L2 78" fill="none" stroke="#294651" stroke-width="4" stroke-linecap="round" stroke-linejoin="round"/></g><path d="M109 84L131 84" fill="none" stroke="#2386a2" stroke-width="3" stroke-linecap="round" stroke-linejoin="round"/><path d="M123.97933950487702 87.83540430883363L131 84L123.97933950487702 80.16459569116637" fill="none" stroke="#2386a2" stroke-width="3" stroke-linecap="round" stroke-linejoin="round"/><path d="M12 135Q29 129 47 135T82 135T117 135T152 135T187 135T222 135" fill="none" stroke="#87b9c7" stroke-width="3" stroke-linecap="round" stroke-linejoin="round"/><text x="120" y="156" text-anchor="middle" font-family="sans-serif" font-size="17" font-weight="bold" fill="#294651">両腕をそろえてかく</text><text x="120" y="173" text-anchor="middle" font-family="sans-serif" font-size="16" font-weight="bold" fill="#294651">両足をそろえ上下へ</text><path d="M13 112Q19 100 25 112T37 112" fill="none" stroke="#2386a2" stroke-width="2" stroke-linecap="round" stroke-linejoin="round"/><path d="M25 89L25 98" fill="none" stroke="#2386a2" stroke-width="3" stroke-linecap="round" stroke-linejoin="round"/><path d="M21.164595691166376 90.97933950487702L25 98L28.835404308833624 90.97933950487702" fill="none" stroke="#2386a2" stroke-width="3" stroke-linecap="round" stroke-linejoin="round"/></svg>
