<svg xmlns="http://www.w3.org/2000/svg" viewBox="0 0 360 280" role="img"><title>電気貨物列車：電動・貨物・連結編成、線路用の車輪。型を示す模式図。</title><rect width="360" height="280" rx="14" fill="#fffdf2"/><rect x="17" y="91" width="155" height="64" rx="4" fill="#c5c5ab" stroke="#274b5b" stroke-width="3"/><rect x="29" y="103" width="131" height="38" rx="1" fill="#eead69" stroke="#274b5b" stroke-width="3"/><circle cx="49" cy="159" r="9" fill="#a4b3bc" stroke="#274b5b" stroke-width="4"/><circle cx="49" cy="159" r="3" fill="#274b5b" stroke="none" stroke-width="4"/><circle cx="142" cy="159" r="9" fill="#a4b3bc" stroke="#274b5b" stroke-width="4"/><circle cx="142" cy="159" r="3" fill="#274b5b" stroke="none" stroke-width="4"/><rect x="187" y="91" width="155" height="64" rx="4" fill="#c5c5ab" stroke="#274b5b" stroke-width="3"/><rect x="199" y="103" width="131" height="38" rx="1" fill="#eead69" stroke="#274b5b" stroke-width="3"/><circle cx="219" cy="159" r="9" fill="#a4b3bc" stroke="#274b5b" stroke-width="4"/><circle cx="219" cy="159" r="3" fill="#274b5b" stroke="none" stroke-width="4"/><circle cx="312" cy="159" r="9" fill="#a4b3bc" stroke="#274b5b" stroke-width="4"/><circle cx="312" cy="159" r="3" fill="#274b5b" stroke="none" stroke-width="4"/><path d="M172 145H187" fill="none" stroke="#274b5b" stroke-width="4" stroke-linejoin="round" stroke-linecap="round"/><path d="M8 173H352M8 181H352" fill="none" stroke="#89979b" stroke-width="3" stroke-linejoin="round" stroke-linecap="round"/><path d="M100 91L117 66L143 91M18 63H339" fill="none" stroke="#274b5b" stroke-width="3" stroke-linejoin="round" stroke-linecap="round"/><text x="180" y="233" text-anchor="middle" font-family="sans-serif" font-size="22" font-weight="bold" fill="#274b5b">電動・貨物・連結編成</text><text x="180" y="263" text-anchor="middle" font-family="sans-serif" font-size="21" font-weight="bold" fill="#274b5b">線路用の車輪</text></svg>
