<svg xmlns="http://www.w3.org/2000/svg" viewBox="0 0 240 164" role="img"><title>石基（細粒の例）：特徴を比べる模式図。実測断面や写真ではない</title><rect width="240" height="164" rx="12" fill="#fffdf2"/><rect x="30" y="23" width="180" height="110" rx="10" fill="#bfe5ee" stroke="#52616a" stroke-width="3"/><circle cx="80.89820751361549" cy="98.25965566723607" r="1.7" fill="#137492" stroke="none" stroke-width="2"/><circle cx="118.07150944741443" cy="39.70772595726885" r="1.7" fill="#137492" stroke="none" stroke-width="2"/><circle cx="96.2974916389212" cy="44.415058246580884" r="1.7" fill="#137492" stroke="none" stroke-width="2"/><circle cx="106.97803879296407" cy="110.69932231423445" r="1.7" fill="#137492" stroke="none" stroke-width="2"/><circle cx="171.01710914075375" cy="118.67722229636274" r="1.7" fill="#137492" stroke="none" stroke-width="2"/><circle cx="199.87978023150936" cy="70.23444640845992" r="1.7" fill="#137492" stroke="none" stroke-width="2"/><circle cx="112.2174720922485" cy="68.20302938739769" r="1.7" fill="#137492" stroke="none" stroke-width="2"/><circle cx="75.78652060730383" cy="112.57583956723101" r="1.7" fill="#137492" stroke="none" stroke-width="2"/><circle cx="192.92731303162873" cy="99.35450406535529" r="1.7" fill="#137492" stroke="none" stroke-width="2"/><circle cx="61.13779911445454" cy="40.18274961807765" r="1.7" fill="#137492" stroke="none" stroke-width="2"/><circle cx="167.33085537236184" cy="114.82436316716485" r="1.7" fill="#137492" stroke="none" stroke-width="2"/><circle cx="156.7722066133283" cy="117.86626536143012" r="1.7" fill="#137492" stroke="none" stroke-width="2"/><circle cx="189.51689787581563" cy="63.32504169992171" r="1.7" fill="#137492" stroke="none" stroke-width="2"/><circle cx="154.96016150945798" cy="121.17219010577537" r="1.7" fill="#137492" stroke="none" stroke-width="2"/><circle cx="162.95543818641454" cy="81.73182028229348" r="1.7" fill="#137492" stroke="none" stroke-width="2"/><circle cx="199.39078719494864" cy="72.50707926531322" r="1.7" fill="#137492" stroke="none" stroke-width="2"/><circle cx="194.2174604292959" cy="103.82067914842628" r="1.7" fill="#137492" stroke="none" stroke-width="2"/><circle cx="192.25351605238393" cy="71.77306702011265" r="1.7" fill="#137492" stroke="none" stroke-width="2"/><circle cx="80.70351187046617" cy="88.99150371435098" r="1.7" fill="#137492" stroke="none" stroke-width="2"/><circle cx="123.80504502123222" cy="47.52710703876801" r="1.7" fill="#137492" stroke="none" stroke-width="2"/><circle cx="93.39669363945723" cy="108.6172667068895" r="1.7" fill="#137492" stroke="none" stroke-width="2"/><circle cx="141.0622677267529" cy="84.9302522635553" r="1.7" fill="#137492" stroke="none" stroke-width="2"/><circle cx="76.90569051448256" cy="36.90981185506098" r="1.7" fill="#137492" stroke="none" stroke-width="2"/><circle cx="38.51180817140266" cy="71.00259875808842" r="1.7" fill="#137492" stroke="none" stroke-width="2"/><circle cx="200.31346477009356" cy="72.44286414398812" r="1.7" fill="#137492" stroke="none" stroke-width="2"/><circle cx="39.976780988741666" cy="40.949518617475405" r="1.7" fill="#137492" stroke="none" stroke-width="2"/><circle cx="133.59723908733577" cy="42.722891631303355" r="1.7" fill="#137492" stroke="none" stroke-width="2"/><circle cx="162.03140325983986" cy="111.57480694097467" r="1.7" fill="#137492" stroke="none" stroke-width="2"/><circle cx="65.6353935264051" cy="124.44844382605515" r="1.7" fill="#137492" stroke="none" stroke-width="2"/><circle cx="110.60408289218321" cy="76.04636786715128" r="1.7" fill="#137492" stroke="none" stroke-width="2"/><circle cx="91.06690156180412" cy="107.34859163011424" r="1.7" fill="#137492" stroke="none" stroke-width="2"/><circle cx="53.65960856107995" cy="116.53006467153318" r="1.7" fill="#137492" stroke="none" stroke-width="2"/><circle cx="144.51893017999828" cy="76.74109384207986" r="1.7" fill="#137492" stroke="none" stroke-width="2"/><circle cx="179.1010662135668" cy="41.45735892676748" r="1.7" fill="#137492" stroke="none" stroke-width="2"/><circle cx="61.96822903957218" cy="79.20091522368602" r="1.7" fill="#137492" stroke="none" stroke-width="2"/><circle cx="123.2821071348153" cy="104.44236372527666" r="1.7" fill="#137492" stroke="none" stroke-width="2"/><circle cx="50.2519336938858" cy="45.97972112870775" r="1.7" fill="#137492" stroke="none" stroke-width="2"/><circle cx="56.77019257703796" cy="84.11393596441485" r="1.7" fill="#137492" stroke="none" stroke-width="2"/><circle cx="71.99340787623078" cy="109.06697369436733" r="1.7" fill="#137492" stroke="none" stroke-width="2"/><circle cx="140.25143995089456" cy="118.37843269412406" r="1.7" fill="#137492" stroke="none" stroke-width="2"/><circle cx="159.45874984748662" cy="111.03325459524058" r="1.7" fill="#137492" stroke="none" stroke-width="2"/><circle cx="54.71769557939842" cy="117.87875652709045" r="1.7" fill="#137492" stroke="none" stroke-width="2"/><circle cx="82.10958780627698" cy="44.046439359663054" r="1.7" fill="#137492" stroke="none" stroke-width="2"/><circle cx="186.3264590143226" cy="39.66531511140056" r="1.7" fill="#137492" stroke="none" stroke-width="2"/><circle cx="133.8677893616259" cy="73.70134824863635" r="1.7" fill="#137492" stroke="none" stroke-width="2"/><circle cx="147.5742839151062" cy="125.34451966569759" r="1.7" fill="#137492" stroke="none" stroke-width="2"/><circle cx="62.3577100681141" cy="88.55349869723432" r="1.7" fill="#137492" stroke="none" stroke-width="2"/><circle cx="92.67428049026057" cy="38.220447576837614" r="1.7" fill="#137492" stroke="none" stroke-width="2"/><circle cx="133.64160602353513" cy="98.49758431850933" r="1.7" fill="#137492" stroke="none" stroke-width="2"/><circle cx="96.27834450127557" cy="29.195294060045853" r="1.7" fill="#137492" stroke="none" stroke-width="2"/><circle cx="117.21383552905172" cy="113.3813054698985" r="1.7" fill="#137492" stroke="none" stroke-width="2"/><circle cx="165.93473782902583" cy="107.44423788157292" r="1.7" fill="#137492" stroke="none" stroke-width="2"/><circle cx="102.26947481185198" cy="97.49517638213001" r="1.7" fill="#137492" stroke="none" stroke-width="2"/><circle cx="199.92164560267702" cy="103.13034614385106" r="1.7" fill="#137492" stroke="none" stroke-width="2"/><circle cx="167.51297281030566" cy="37.828933850629255" r="1.7" fill="#137492" stroke="none" stroke-width="2"/><circle cx="68.34733489109203" cy="41.675143133150414" r="1.7" fill="#137492" stroke="none" stroke-width="2"/><circle cx="93.02247002162039" cy="91.23517248942517" r="1.7" fill="#137492" stroke="none" stroke-width="2"/><circle cx="36.65753995673731" cy="79.35046822973527" r="1.7" fill="#137492" stroke="none" stroke-width="2"/><circle cx="178.93540641199797" cy="120.89083154755645" r="1.7" fill="#137492" stroke="none" stroke-width="2"/><circle cx="141.94069907208905" cy="50.2072478805203" r="1.7" fill="#137492" stroke="none" stroke-width="2"/><circle cx="151.97104338929057" cy="90.6971582879778" r="1.7" fill="#137492" stroke="none" stroke-width="2"/><circle cx="143.67166789853945" cy="56.606806634226814" r="1.7" fill="#137492" stroke="none" stroke-width="2"/><circle cx="112.055524838157" cy="94.50877292896621" r="1.7" fill="#137492" stroke="none" stroke-width="2"/><circle cx="61.78453442780301" cy="67.87034223903902" r="1.7" fill="#137492" stroke="none" stroke-width="2"/><circle cx="87.56510221771896" cy="82.33246014802717" r="1.7" fill="#137492" stroke="none" stroke-width="2"/><circle cx="36.21516048582271" cy="104.81218980276026" r="1.7" fill="#137492" stroke="none" stroke-width="2"/><circle cx="88.9531487217173" cy="48.88631214830093" r="1.7" fill="#137492" stroke="none" stroke-width="2"/><circle cx="98.3040747991763" cy="90.17250001546927" r="1.7" fill="#137492" stroke="none" stroke-width="2"/><circle cx="116.77658750116825" cy="116.15984828746878" r="1.7" fill="#137492" stroke="none" stroke-width="2"/><circle cx="155.70034262398258" cy="118.21495643467642" r="1.7" fill="#137492" stroke="none" stroke-width="2"/><circle cx="116.3873589495197" cy="62.86573626915924" r="1.7" fill="#137492" stroke="none" stroke-width="2"/><circle cx="38.657036937307566" cy="78.00515683297999" r="1.7" fill="#137492" stroke="none" stroke-width="2"/><circle cx="77.8045520503074" cy="108.92373989685439" r="1.7" fill="#137492" stroke="none" stroke-width="2"/><circle cx="156.85893619107082" cy="111.13528360822238" r="1.7" fill="#137492" stroke="none" stroke-width="2"/><circle cx="190.53282478731126" cy="34.36751839029603" r="1.7" fill="#137492" stroke="none" stroke-width="2"/><circle cx="57.173073628451675" cy="110.91068825614639" r="1.7" fill="#137492" stroke="none" stroke-width="2"/><circle cx="179.34273861721158" cy="41.314902264392" r="1.7" fill="#137492" stroke="none" stroke-width="2"/><circle cx="133.96276316279545" cy="83.26401490555145" r="1.7" fill="#137492" stroke="none" stroke-width="2"/><circle cx="123.2786320047453" cy="98.89227077062242" r="1.7" fill="#137492" stroke="none" stroke-width="2"/><circle cx="69.85572681901976" cy="109.9124879159499" r="1.7" fill="#137492" stroke="none" stroke-width="2"/><circle cx="151.40965802036226" cy="64.25365590094589" r="1.7" fill="#137492" stroke="none" stroke-width="2"/><circle cx="166.10694873752072" cy="36.5239885377232" r="1.7" fill="#137492" stroke="none" stroke-width="2"/><circle cx="80.08961100038141" cy="84.0851979542058" r="1.7" fill="#137492" stroke="none" stroke-width="2"/><circle cx="47.94688074057922" cy="99.90754563477822" r="1.7" fill="#137492" stroke="none" stroke-width="2"/><circle cx="97.74116726964712" cy="29.235577665036544" r="1.7" fill="#137492" stroke="none" stroke-width="2"/><circle cx="161.55562446126714" cy="46.49386546970345" r="1.7" fill="#137492" stroke="none" stroke-width="2"/><circle cx="179.4301649266854" cy="37.363049895269796" r="1.7" fill="#137492" stroke="none" stroke-width="2"/><circle cx="135.55371503485367" cy="41.62152555142529" r="1.7" fill="#137492" stroke="none" stroke-width="2"/><circle cx="79.74554769136012" cy="91.73970388784073" r="1.7" fill="#137492" stroke="none" stroke-width="2"/><circle cx="166.15013135271147" cy="97.39445754536428" r="1.7" fill="#137492" stroke="none" stroke-width="2"/><circle cx="143.75059781502932" cy="80.6035750831943" r="1.7" fill="#137492" stroke="none" stroke-width="2"/><circle cx="76.338157878723" cy="106.12634424609132" r="1.7" fill="#137492" stroke="none" stroke-width="2"/><circle cx="82.02108305320144" cy="59.69923349819146" r="1.7" fill="#137492" stroke="none" stroke-width="2"/><circle cx="145.7797230281867" cy="68.637555612484" r="1.7" fill="#137492" stroke="none" stroke-width="2"/><circle cx="157.03594270069152" cy="76.89747366751544" r="1.7" fill="#137492" stroke="none" stroke-width="2"/><circle cx="94.26883910922334" cy="33.920248865382746" r="1.7" fill="#137492" stroke="none" stroke-width="2"/><circle cx="194.43613768927753" cy="106.03473114757799" r="1.7" fill="#137492" stroke="none" stroke-width="2"/><circle cx="67.91476882668212" cy="66.93725764774717" r="1.7" fill="#137492" stroke="none" stroke-width="2"/><circle cx="123.91728974785656" cy="79.3628505829256" r="1.7" fill="#137492" stroke="none" stroke-width="2"/><circle cx="93.43554334854707" cy="100.57039524731226" r="1.7" fill="#137492" stroke="none" stroke-width="2"/><path d="M63 39L88 31L99 49L80 67L60 57Z" fill="#ccd1cf" stroke="#52616a" stroke-width="3" stroke-linejoin="round" stroke-linecap="round"/><path d="M133 43L160 39L175 63L153 74L129 61Z" fill="#ccd1cf" stroke="#52616a" stroke-width="3" stroke-linejoin="round" stroke-linecap="round"/><path d="M98 90L125 76L145 96L136 117L109 118Z" fill="#ccd1cf" stroke="#52616a" stroke-width="3" stroke-linejoin="round" stroke-linecap="round"/><text x="120" y="157" text-anchor="middle" font-family="sans-serif" font-size="22" font-weight="bold" fill="#233e4a">青：石基</text></svg>
